<?xml version="1.0" encoding="UTF-8"?>
<svg version="1.1" xmlns="http://www.w3.org/2000/svg" width="1322" height="189">
<path d="M0 0 C0.97379105 -0.0098568 0.97379105 -0.0098568 1.96725464 -0.01991272 C4.12441125 -0.03967735 6.28149753 -0.05132595 8.4387207 -0.0612793 C9.17941111 -0.06535482 9.92010151 -0.06943035 10.68323708 -0.07362938 C14.61678412 -0.09452073 18.55029615 -0.10879937 22.48388672 -0.11816406 C26.50924887 -0.12913098 30.53404316 -0.16340642 34.55920696 -0.20333576 C37.68320078 -0.22977113 40.80706612 -0.23788024 43.93116188 -0.24144554 C45.41203381 -0.2462562 46.89290223 -0.25770805 48.37366295 -0.27648354 C65.09142913 -0.47498238 81.06512749 2.69641404 93.61450195 14.55200195 C102.34614444 23.8293721 104.54787864 34.69077785 104.67700195 47.17700195 C103.45188169 67.48223589 94.72794022 85.59332669 80.67700195 100.17700195 C66.44861866 112.66877258 48.88202073 120.32710756 29.82373047 120.29052734 C28.8565937 120.29074638 28.8565937 120.29074638 27.86991882 120.29096985 C25.76521288 120.29028012 23.66059844 120.28253237 21.5559082 120.2746582 C20.08617705 120.27279068 18.61644526 120.27136835 17.14671326 120.27037048 C13.29821014 120.26657166 9.44974539 120.25676416 5.60125732 120.2456665 C1.66622435 120.23539545 -2.26881488 120.23086071 -6.20385742 120.22583008 C-13.91025503 120.21513928 -21.61662114 120.19809487 -29.32299805 120.17700195 C-29.32299805 118.85700195 -29.32299805 117.53700195 -29.32299805 116.17700195 C-28.63592773 116.05325195 -27.94885742 115.92950195 -27.2409668 115.80200195 C-25.88938477 115.49262695 -25.88938477 115.49262695 -24.51049805 115.17700195 C-23.61717773 114.99137695 -22.72385742 114.80575195 -21.8034668 114.61450195 C-18.69380422 112.81236679 -18.00218827 110.90182708 -16.93408203 107.54223633 C-15.81431555 103.20811821 -15.02825503 98.8351387 -14.26049805 94.42700195 C-11.61340992 79.93733806 -8.30307288 65.6103866 -4.97705078 51.26391602 C-3.73733341 45.90640197 -2.5191143 40.54441919 -1.32299805 35.17700195 C-1.11829895 34.26092163 -0.91359985 33.34484131 -0.70269775 32.40100098 C-0.10453532 29.69121151 0.47481198 26.9780895 1.0480957 24.26293945 C1.22824722 23.45112213 1.40839874 22.63930481 1.5940094 21.80288696 C2.58049553 17.01170597 2.96385425 13.00511405 1.67700195 8.17700195 C-1.63642192 6.18551379 -1.63642192 6.18551379 -5.32299805 5.17700195 C-6.31299805 4.84700195 -7.30299805 4.51700195 -8.32299805 4.17700195 C-8.32299805 3.18700195 -8.32299805 2.19700195 -8.32299805 1.17700195 C-5.50938385 -0.22980514 -3.14721884 0.02634304 0 0 Z M36.67700195 8.17700195 C33.3088911 13.38566159 31.69217288 19.05765782 30.36450195 25.05200195 C30.16066895 25.93710449 29.95683594 26.82220703 29.74682617 27.73413086 C27.47532155 37.76002433 25.4544716 47.84252337 23.41967773 57.91870117 C21.92968918 65.27001174 20.37919496 72.59909396 18.6730957 79.90356445 C18.51010986 80.6050058 18.34712402 81.30644714 18.17919922 82.02914429 C17.40417643 85.35751754 16.6169069 88.68174826 15.81030273 92.00268555 C13.18942866 102.01068268 13.18942866 102.01068268 13.67700195 112.17700195 C17.98814581 116.26857559 22.32399896 115.66020379 28.00512695 115.5246582 C38.59646973 114.52186086 47.97588346 109.29616518 55.30200195 101.67700195 C70.84366963 82.60967819 76.10381775 51.11154 73.67700195 27.17700195 C72.38813141 21.20193028 70.31403641 15.32592752 65.67700195 11.17700195 C56.97130646 6.08169523 45.79262951 1.39327912 36.67700195 8.17700195 Z " fill="#FDFDFD" transform="translate(33.322998046875,40.822998046875)"/>
<path d="M0 0 C18.15 0 36.3 0 55 0 C55.495 1.98 55.495 1.98 56 4 C53.03 5.32 50.06 6.64 47 8 C46.73977512 13.77572297 47.28259958 17.70800423 49.5625 23.125 C49.82627441 23.75736572 50.09004883 24.38973145 50.36181641 25.04125977 C53.2548687 31.84878893 56.58460775 38.4420427 60 45 C63.99186862 43.43675075 66.41653504 40.63980651 69.1875 37.5 C69.66582275 36.96681152 70.14414551 36.43362305 70.63696289 35.88427734 C71.61895231 34.78912548 72.59869102 33.69195131 73.57617188 32.59277344 C74.89706674 31.11514688 76.23684627 29.65446118 77.578125 28.1953125 C85.07655147 20.7307218 85.07655147 20.7307218 88.25 11.125 C88.1675 10.09375 88.085 9.0625 88 8 C85.69 6.68 83.38 5.36 81 4 C81 3.01 81 2.02 81 1 C84.53447838 -0.17815946 87.76148719 -0.18078573 91.44140625 -0.203125 C92.52662819 -0.21167511 92.52662819 -0.21167511 93.6337738 -0.22039795 C95.16102644 -0.22983198 96.68829928 -0.23637559 98.21557617 -0.24023438 C100.55748492 -0.24997913 102.89853007 -0.28103143 105.24023438 -0.3125 C106.72395312 -0.31902655 108.20767814 -0.32427839 109.69140625 -0.328125 C110.39350723 -0.3404718 111.09560822 -0.3528186 111.81898499 -0.36553955 C113.79125977 -0.35644531 113.79125977 -0.35644531 117 0 C117.99 1.485 117.99 1.485 119 3 C116.69406803 5.30593197 115.55464006 5.46065514 112.4375 6.1875 C101.2851609 9.49189677 94.28010157 18.76230171 86.66015625 27.05078125 C83.68199208 30.28590921 80.6329689 33.41486269 77.5 36.5 C73.95124017 40.00144303 70.60888041 43.61265951 67.375 47.40625 C66.30150314 48.65053045 65.16203041 49.83796959 64 51 C64.18764818 57.47386212 66.89954714 62.78217127 69.625 68.5625 C70.07721924 69.53832031 70.52943848 70.51414062 70.99536133 71.51953125 C74.00649471 77.98318154 77.09853823 84.40040555 80.3515625 90.74609375 C81.53432142 93.08078138 82.67041703 95.41372238 83.7734375 97.78515625 C84.2226355 98.73261719 84.2226355 98.73261719 84.6809082 99.69921875 C85.50571193 101.44247603 86.31778881 103.19173896 87.12890625 104.94140625 C90.21446165 109.98522646 94.10382378 113.15110078 99.875 114.8125 C100.65617188 115.04582031 101.43734375 115.27914062 102.2421875 115.51953125 C103.11230469 115.75736328 103.11230469 115.75736328 104 116 C104 117.32 104 118.64 104 120 C82.88 120 61.76 120 40 120 C40 118.68 40 117.36 40 116 C41.04800781 115.70996094 41.04800781 115.70996094 42.1171875 115.4140625 C43.02726562 115.15367187 43.93734375 114.89328125 44.875 114.625 C45.77992188 114.36976563 46.68484375 114.11453125 47.6171875 113.8515625 C50.14569726 113.1395685 50.14569726 113.1395685 52 111 C53.06633177 102.94327111 50.22739507 96.64088039 46.98291016 89.41308594 C46.11754674 87.4833797 45.27783866 85.5439607 44.44140625 83.6015625 C42.29344003 77.36766139 42.29344003 77.36766139 38 73 C37.72760498 73.59458008 37.45520996 74.18916016 37.17456055 74.80175781 C36.02970512 76.94440556 34.87355302 78.42006637 33.20703125 80.171875 C32.39057129 81.0386084 32.39057129 81.0386084 31.55761719 81.92285156 C30.98172852 82.52581055 30.40583984 83.12876953 29.8125 83.75 C28.62547304 85.00963593 27.43926755 86.2700465 26.25390625 87.53125 C25.4033667 88.43423828 25.4033667 88.43423828 24.53564453 89.35546875 C22.18379277 91.87408138 19.92602657 94.46855344 17.671875 97.07421875 C14.17386649 101.10346687 10.60222344 105.06388063 7 109 C6.08541016 110.01513672 6.08541016 110.01513672 5.15234375 111.05078125 C-0.46791072 117.02950298 -6.45850878 120.52012582 -14.76171875 121.09375 C-20.15669734 120.86778231 -23.78739721 119.27323293 -27.5 115.375 C-29.41095032 111.07536178 -29.83904711 107.63188254 -29 103 C-26.55412525 98.67268313 -23.6358881 96.69388219 -19 95 C-15.41351542 94.34725981 -12.40906264 94.1783004 -9.19140625 96.0546875 C-7.00931593 97.82338421 -5.26435027 99.47129946 -4 102 C-3.93049459 103.54023996 -3.91547643 105.08334988 -3.9375 106.625 C-3.94652344 107.44226563 -3.95554687 108.25953125 -3.96484375 109.1015625 C-3.97644531 109.72804688 -3.98804688 110.35453125 -4 111 C0.92817582 106.1723992 5.71684804 101.29475148 10.21875 96.06640625 C12.12349731 93.85673229 14.05463642 91.67401639 16 89.5 C16.73992187 88.67113281 17.47984375 87.84226562 18.2421875 86.98828125 C20.41890647 84.59355627 22.67354854 82.28505545 24.9453125 79.98046875 C25.63367188 79.27277344 26.32203125 78.56507812 27.03125 77.8359375 C28.41219978 76.41891814 29.80527133 75.01359825 31.2109375 73.62109375 C31.84515625 72.96625 32.479375 72.31140625 33.1328125 71.63671875 C33.70918457 71.05623779 34.28555664 70.47575684 34.87939453 69.87768555 C36.21068775 68.04110267 36.21068775 68.04110267 35.88867188 65.74658203 C34.73363599 62.1767596 33.23660201 58.81006402 31.6484375 55.41796875 C31.14275742 54.32020866 31.14275742 54.32020866 30.62686157 53.20027161 C29.54793058 50.86032119 28.46183645 48.52378761 27.375 46.1875 C26.3152034 43.8992035 25.25698673 41.61018852 24.20001221 39.32058716 C23.49916456 37.80261275 22.79697566 36.28525687 22.09344482 34.76852417 C20.36285456 31.02324774 18.67193037 27.2673488 17.05566406 23.47119141 C16.74674225 22.74797195 16.43782043 22.0247525 16.11953735 21.27961731 C15.544057 19.92379377 14.97515327 18.56515053 14.41439819 17.20317078 C12.43093902 12.52957733 10.35459466 8.14221231 5.640625 5.85546875 C4.85171875 5.63503906 4.0628125 5.41460937 3.25 5.1875 C2.45078125 4.95417969 1.6515625 4.72085938 0.828125 4.48046875 C0.22484375 4.32191406 -0.3784375 4.16335937 -1 4 C-0.67 2.68 -0.34 1.36 0 0 Z " fill="#FDFDFD" transform="translate(279,41)"/>
<path d="M0 0 C1.03447266 -0.00315216 2.06894531 -0.00630432 3.13476562 -0.009552 C4.25560547 -0.00752777 5.37644531 -0.00550354 6.53125 -0.00341797 C7.67787109 -0.00437469 8.82449219 -0.00533142 10.00585938 -0.00631714 C12.43359431 -0.00699858 14.86133105 -0.00514682 17.2890625 -0.00097656 C21.01566643 0.00437216 24.74214984 -0.00092282 28.46875 -0.00732422 C30.82291693 -0.00666343 33.17708379 -0.00538226 35.53125 -0.00341797 C36.65208984 -0.0054422 37.77292969 -0.00746643 38.92773438 -0.009552 C40.47944336 -0.00482376 40.47944336 -0.00482376 42.0625 0 C42.97580078 0.00079559 43.88910156 0.00159119 44.83007812 0.00241089 C47.03125 0.12939453 47.03125 0.12939453 49.03125 1.12939453 C49.03125 2.11939453 49.03125 3.10939453 49.03125 4.12939453 C48.34417969 4.37173828 47.65710938 4.61408203 46.94921875 4.86376953 C45.59763672 5.36650391 45.59763672 5.36650391 44.21875 5.87939453 C43.32542969 6.20423828 42.43210938 6.52908203 41.51171875 6.86376953 C37.70405867 8.80657562 36.37858603 11.0621575 35.06323242 15.10375977 C34.77810791 16.30718018 34.4929834 17.51060059 34.19921875 18.75048828 C34.03568405 19.43485458 33.87214935 20.11922089 33.70365906 20.82432556 C31.36056598 30.76495948 29.22752439 40.75618562 27.0847168 50.74145508 C26.33829286 54.21730662 25.58639489 57.6919439 24.83398438 61.16650391 C24.35384236 63.39494968 23.87401327 65.62346291 23.39453125 67.85205078 C23.17162918 68.88129166 22.94872711 69.91053253 22.71907043 70.97096252 C20.98361142 79.08448748 19.83661251 86.89443773 19.78125 95.19189453 C19.760625 95.96855469 19.74 96.74521484 19.71875 97.54541016 C19.68483864 102.55157469 20.47012076 105.70133687 23.03125 110.12939453 C23.03125 110.78939453 23.03125 111.44939453 23.03125 112.12939453 C24.68374487 112.83045296 26.35492583 113.48739804 28.03125 114.12939453 C29.000625 114.52126953 29.97 114.91314453 30.96875 115.31689453 C40.32299568 117.81813848 50.15074558 115.6167994 58.41015625 110.97705078 C69.17192767 103.39088405 73.41229531 89.88621427 76.84765625 77.73095703 C77.10479401 76.82465546 77.36193176 75.91835388 77.62686157 74.98458862 C80.44946558 64.86901289 82.85353396 54.66045059 85.18359375 44.421875 C85.91725685 41.20615032 86.66527019 37.99396988 87.4140625 34.78173828 C87.8888772 32.71292422 88.36286723 30.64392068 88.8359375 28.57470703 C89.05772675 27.62677277 89.27951599 26.6788385 89.50802612 25.70217896 C91.75076134 16.33189834 91.75076134 16.33189834 90.03125 7.12939453 C87.71809675 5.98645898 87.71809675 5.98645898 84.96875 5.37939453 C84.04964844 5.13705078 83.13054687 4.89470703 82.18359375 4.64501953 C81.47332031 4.47486328 80.76304687 4.30470703 80.03125 4.12939453 C80.36125 2.80939453 80.69125 1.48939453 81.03125 0.12939453 C85.5519165 0.10470596 90.0725439 0.08654004 94.59326172 0.07446289 C96.13168013 0.06942901 97.67009375 0.06260145 99.20849609 0.05395508 C101.41765526 0.04184815 103.62675126 0.03615684 105.8359375 0.03173828 C106.52557587 0.026577 107.21521423 0.02141571 107.92575073 0.01609802 C112.80350659 0.01552282 112.80350659 0.01552282 115.03125 1.12939453 C114.46875 3.00439453 114.46875 3.00439453 113.03125 5.12939453 C111.938125 5.43876953 110.845 5.74814453 109.71875 6.06689453 C105.36454418 7.32149621 103.94543063 8.7097949 101.03125 12.12939453 C99.60488342 15.10507633 99.60488342 15.10507633 98.671875 18.57080078 C98.37304413 19.58117149 98.37304413 19.58117149 98.06817627 20.61195374 C95.28117892 30.32872381 93.05690194 40.20650663 90.69921875 50.03369141 C90.54114494 50.69254019 90.38307114 51.35138897 90.22020721 52.03020287 C89.41798975 55.38150691 88.62404269 58.73447072 87.84423828 62.09106445 C78.60459394 101.76566472 78.60459394 101.76566472 62.34375 115.37939453 C50.60909441 121.57883522 39.16103404 122.42690228 26.15625 121.94189453 C24.63837891 121.91385742 24.63837891 121.91385742 23.08984375 121.88525391 C12.086319 121.48371683 2.17418838 118.39193613 -5.65625 110.37939453 C-11.71466095 101.86487103 -12.10718021 93.19327521 -10.67578125 83.05419922 C-9.65923781 77.03418523 -8.29935409 71.08604113 -6.96875 65.12939453 C-6.24155884 61.82016025 -5.51619798 58.51053703 -4.79225159 55.20059204 C-4.04049929 51.76552136 -3.28517178 48.33136371 -2.51928711 44.89941406 C-1.01253042 38.12301571 0.423318 31.336983 1.734375 24.52001953 C1.97961914 23.24674805 2.22486328 21.97347656 2.47753906 20.66162109 C3.19860491 16.06180601 3.24893191 11.77327518 3.03125 7.12939453 C-1.42375 6.13939453 -1.42375 6.13939453 -5.96875 5.12939453 C-6.29875 3.80939453 -6.62875 2.48939453 -6.96875 1.12939453 C-4.47400029 -0.11798032 -2.79097396 0.00243127 0 0 Z " fill="#FDFDFD" transform="translate(154.96875,40.87060546875)"/>
<path d="M0 0 C2.21246918 -0.00963829 4.42398208 -0.04062677 6.63623047 -0.07226562 C22.77244161 -0.19505966 22.77244161 -0.19505966 29.55419922 5.86523438 C32.11494687 10.05554871 32.90675129 13.35329645 32.61669922 18.24023438 C30.89293009 23.51293993 28.04577228 26.13988323 23.61669922 29.24023438 C20.92138672 29.87695312 20.92138672 29.87695312 18.61669922 30.24023438 C21.9559854 39.67786234 25.45920498 48.60783267 30.61669922 57.24023438 C26.56824037 59.93920694 23.3671135 59.77643634 18.61669922 59.24023438 C11.90289506 56.40551706 9.0772263 50.56300333 6.36669922 44.11523438 C6.09857422 43.49519531 5.83044922 42.87515625 5.55419922 42.23632812 C4.35842535 39.39941563 3.61669922 37.35073982 3.61669922 34.24023438 C1.63669922 34.73523438 1.63669922 34.73523438 -0.38330078 35.24023438 C-1.83875002 41.46487891 -3.27521237 47.82634076 -2.38330078 54.24023438 C-1.72330078 55.23023438 -1.06330078 56.22023437 -0.38330078 57.24023438 C-2.99281314 58.54499055 -4.91031363 58.3532501 -7.82861328 58.33789062 C-9.44316406 58.33305664 -9.44316406 58.33305664 -11.09033203 58.328125 C-12.21826172 58.31974609 -13.34619141 58.31136719 -14.50830078 58.30273438 C-15.64396484 58.29822266 -16.77962891 58.29371094 -17.94970703 58.2890625 C-20.76095716 58.27725052 -23.57210308 58.26077944 -26.38330078 58.24023438 C-26.38330078 57.25023437 -26.38330078 56.26023438 -26.38330078 55.24023438 C-24.99111328 54.80710937 -24.99111328 54.80710937 -23.57080078 54.36523438 C-17.42479787 50.2678991 -17.17452275 41.56893056 -15.77783203 34.65820312 C-15.37660339 32.6119355 -14.9827343 30.5644526 -14.59350586 28.51586914 C-14.1929421 26.41272498 -13.78180377 24.31183355 -13.36962891 22.2109375 C-13.10923565 20.86014688 -12.84944805 19.50923933 -12.59033203 18.15820312 C-12.35805908 16.9493042 -12.12578613 15.74040527 -11.88647461 14.49487305 C-11.44947266 11.66824862 -11.27928681 9.09102505 -11.38330078 6.24023438 C-12.70330078 5.58023438 -14.02330078 4.92023438 -15.38330078 4.24023438 C-15.38330078 3.25023438 -15.38330078 2.26023437 -15.38330078 1.24023438 C-10.94827356 -0.97727923 -4.93114906 0.01299666 0 0 Z M5.61669922 5.24023438 C3.81401387 10.14667364 2.84427649 14.98237119 1.99169922 20.11523438 C1.85763672 20.89898437 1.72357422 21.68273437 1.58544922 22.49023438 C1.25833499 24.40618912 0.93693037 26.32311719 0.61669922 28.24023438 C4.6088656 29.5323418 6.92036193 28.88665145 10.71044922 27.30273438 C13.97869148 25.48109115 15.13019929 23.64679671 16.61669922 20.24023438 C17.48674675 15.06966621 17.48341231 11.51481245 14.49169922 7.11523438 C11.19839391 4.96742656 9.47153701 4.79199742 5.61669922 5.24023438 Z " fill="#FCFCFC" transform="translate(1052.38330078125,95.759765625)"/>
<path d="M0 0 C1.29088531 0.0001133 1.29088531 0.0001133 2.60784912 0.00022888 C3.52777649 0.00539017 4.44770386 0.01055145 5.39550781 0.01586914 C6.81866302 0.01799156 6.81866302 0.01799156 8.27056885 0.02015686 C11.29662243 0.02574797 14.32260164 0.03829887 17.34863281 0.05102539 C19.40201716 0.05604154 21.45540267 0.06060425 23.50878906 0.06469727 C28.53876557 0.0757145 33.56868659 0.09297306 38.59863281 0.11352539 C41.0172867 4.30800156 40.35501024 6.66395763 39.22363281 11.36352539 C38.92714844 12.62680664 38.63066406 13.89008789 38.32519531 15.19165039 C38.08542969 16.15586914 37.84566406 17.12008789 37.59863281 18.11352539 C36.27863281 18.44352539 34.95863281 18.77352539 33.59863281 19.11352539 C33.42847656 18.41485352 33.25832031 17.71618164 33.08300781 16.99633789 C32.84066406 16.08625977 32.59832031 15.17618164 32.34863281 14.23852539 C32.00058594 12.88114258 32.00058594 12.88114258 31.64550781 11.49633789 C30.80206827 9.05252793 30.80206827 9.05252793 28.91113281 7.83227539 C25.87683692 6.88918342 23.01809398 6.67869306 19.84863281 6.48852539 C18.67816406 6.41375977 17.50769531 6.33899414 16.30175781 6.26196289 C15.40972656 6.21297852 14.51769531 6.16399414 13.59863281 6.11352539 C13.48269775 6.75378662 13.3667627 7.39404785 13.24731445 8.05371094 C12.71905473 10.96956734 12.19010043 13.88529733 11.66113281 16.80102539 C11.47873047 17.80842773 11.29632813 18.81583008 11.10839844 19.85375977 C10.93115234 20.83022461 10.75390625 21.80668945 10.57128906 22.81274414 C10.40894775 23.70823975 10.24660645 24.60373535 10.0793457 25.52636719 C9.60851185 28.06035721 9.11021246 30.58747646 8.59863281 33.11352539 C10.53697277 33.02637522 12.47437572 32.91819575 14.41113281 32.80102539 C15.49007812 32.74301758 16.56902344 32.68500977 17.68066406 32.62524414 C20.84928757 32.06956853 21.70613948 31.62689981 23.59863281 29.11352539 C24.25863281 28.12352539 24.91863281 27.13352539 25.59863281 26.11352539 C26.91863281 26.44352539 28.23863281 26.77352539 29.59863281 27.11352539 C29.34183718 29.65731269 29.0687074 32.19757913 28.78613281 34.73852539 C28.71587891 35.45137695 28.645625 36.16422852 28.57324219 36.89868164 C28.04182219 41.53266402 26.96394887 45.0050038 24.59863281 49.11352539 C23.60863281 48.78352539 22.61863281 48.45352539 21.59863281 48.11352539 C20.41113281 44.55102539 20.41113281 44.55102539 19.59863281 41.11352539 C15.30863281 40.45352539 11.01863281 39.79352539 6.59863281 39.11352539 C5.90136071 43.19541016 5.21545087 47.27864915 4.53613281 51.36352539 C4.33697266 52.52239258 4.1378125 53.68125977 3.93261719 54.87524414 C3.74892578 55.9902832 3.56523437 57.10532227 3.37597656 58.25415039 C3.20316162 59.28056641 3.03034668 60.30698242 2.85229492 61.36450195 C2.60923736 63.99860027 2.64248493 65.66440857 3.59863281 68.11352539 C4.9077856 69.1449791 6.23945424 70.14894705 7.59863281 71.11352539 C7.59863281 71.77352539 7.59863281 72.43352539 7.59863281 73.11352539 C1.87186225 74.33860704 -3.76387331 74.26138344 -9.58886719 74.23852539 C-10.58595703 74.24239258 -11.58304687 74.24625977 -12.61035156 74.25024414 C-13.56619141 74.24895508 -14.52203125 74.24766602 -15.50683594 74.24633789 C-16.3746167 74.24520996 -17.24239746 74.24408203 -18.13647461 74.24291992 C-20.40136719 74.11352539 -20.40136719 74.11352539 -23.40136719 73.11352539 C-23.40136719 72.12352539 -23.40136719 71.13352539 -23.40136719 70.11352539 C-19.93636719 69.12352539 -19.93636719 69.12352539 -16.40136719 68.11352539 C-16.16264893 66.97254395 -15.92393066 65.8315625 -15.67797852 64.65600586 C-14.06450322 56.96046434 -12.44237895 49.26736245 -10.76364136 41.58575439 C-10.04586455 38.29817295 -9.33596944 35.00891033 -8.62670898 31.71948242 C-8.26255533 30.03971417 -7.89493927 28.36069344 -7.52416992 26.68237305 C-6.97791257 24.20559526 -6.44430238 21.726379 -5.91308594 19.24633789 C-5.66168098 18.12764816 -5.66168098 18.12764816 -5.40519714 16.98635864 C-4.58413603 13.0904224 -4.07170944 9.92524086 -5.40136719 6.11352539 C-7.36894992 4.75332388 -7.36894992 4.75332388 -9.40136719 4.11352539 C-9.07136719 3.12352539 -8.74136719 2.13352539 -8.40136719 1.11352539 C-5.6182686 0.0540995 -2.95420743 -0.00868885 0 0 Z " fill="#FCFCFC" transform="translate(435.4013671875,80.886474609375)"/>
<path d="M0 0 C1.70336001 1.70336001 1.17182498 3.86446226 1.1875 6.1875 C1.15939308 10.5047224 0.73473512 13.98842503 -1 18 C-2.875 17.7734375 -2.875 17.7734375 -5 17 C-6.125 15.0390625 -6.125 15.0390625 -7 12.625 C-8.88026336 7.83101154 -8.88026336 7.83101154 -13 5 C-17.73611959 4.42026702 -17.73611959 4.42026702 -21.875 6.375 C-24.30265816 9.88161735 -24.27723481 12.28212154 -23.7578125 16.4375 C-22.25344894 21.52442006 -18.51152548 25.14943068 -15 29 C-7.60991417 37.12385322 -2.51026826 43.40149485 -2.7265625 54.88671875 C-3.53270376 61.11703905 -7.09782588 65.95874385 -11.96875 69.74609375 C-19.56169368 74.43327629 -28.3006737 74.84150346 -37 74 C-41.73864979 72.84259527 -45.41600962 70.26775593 -49 67 C-50.28333842 64.43332316 -49.96706094 62.90400742 -49.6875 60.0625 C-49.56955078 58.74958984 -49.56955078 58.74958984 -49.44921875 57.41015625 C-49 55 -49 55 -47 52 C-45.0859375 52.203125 -45.0859375 52.203125 -43 53 C-42.1640625 55.109375 -42.1640625 55.109375 -41.625 57.75 C-40.70445067 61.16778422 -39.97049323 63.65785534 -37.375 66.125 C-33.08465457 68.50852524 -29.80258624 68.64034483 -25 68 C-23.515 67.505 -23.515 67.505 -22 67 C-19.92912789 62.53127598 -19.01063934 57.85767169 -20 53 C-22.56323401 47.61038627 -26.51906217 43.3831635 -30.5625 39.0625 C-35.81254226 33.33356876 -40.12412635 27.36161985 -40.5625 19.375 C-40.13076867 12.93311413 -37.44188693 8.04655285 -32.75 3.6875 C-23.03216243 -3.86853048 -11.43716109 -3.2240557 0 0 Z " fill="#FDFDFD" transform="translate(974,82)"/>
<path d="M0 0 C0.71220703 -0.04576172 1.42441406 -0.09152344 2.15820312 -0.13867188 C6.20217423 -0.22471381 7.88720727 0.16150841 10.890625 2.921875 C11.69575528 4.06696796 12.45933889 5.24198586 13.1875 6.4375 C13.59057373 7.0987085 13.99364746 7.75991699 14.40893555 8.44116211 C15.69433464 10.64625379 16.9162123 12.8770624 18.125 15.125 C18.5566748 15.91648437 18.98834961 16.70796875 19.43310547 17.5234375 C20.29209004 19.09936729 21.14860434 20.67664647 22.00244141 22.25537109 C23.04446422 24.1741185 24.1005604 26.08358116 25.16796875 27.98828125 C25.71066406 28.96152344 26.25335937 29.93476562 26.8125 30.9375 C27.27914062 31.7728125 27.74578125 32.608125 28.2265625 33.46875 C29.1875 35.4375 29.1875 35.4375 29.1875 37.4375 C29.8475 37.4375 30.5075 37.4375 31.1875 37.4375 C31.32027344 36.14972656 31.45304688 34.86195313 31.58984375 33.53515625 C32.13649522 28.61529302 32.9110193 23.75232797 33.75 18.875 C33.95786133 17.64813477 33.95786133 17.64813477 34.16992188 16.39648438 C34.5068499 14.40977085 34.84684584 12.42357801 35.1875 10.4375 C34.5275 10.4375 33.8675 10.4375 33.1875 10.4375 C33.1875 7.4375 33.1875 4.4375 33.1875 1.4375 C39.08260757 0.25847849 45.89608159 -1.09011227 51.1875 2.4375 C48.890279 4.18021938 46.58883271 5.83661152 44.1875 7.4375 C43.18194961 10.19053351 43.18194961 10.19053351 42.50390625 13.4921875 C42.21789551 14.73838867 41.93188477 15.98458984 41.63720703 17.26855469 C41.34109332 18.61645346 41.04536485 19.96443693 40.75 21.3125 C40.44205649 22.6762906 40.13329665 24.03989713 39.82373047 25.40332031 C37.85611456 34.12994594 36.00685303 42.88166311 34.34204102 51.67138672 C33.28108587 57.25032826 33.28108587 57.25032826 32.1875 59.4375 C29.0625 60 29.0625 60 25.1875 59.4375 C22.50733324 56.90181663 20.94843848 53.64862311 19.1875 50.4375 C18.4048228 49.05402099 17.6208684 47.67126409 16.8359375 46.2890625 C11.82664691 37.40873906 6.98702473 28.43263575 2.1875 19.4375 C0.66690971 25.36917202 -0.69778522 31.31595368 -1.9375 37.3125 C-2.11925781 38.14652344 -2.30101562 38.98054688 -2.48828125 39.83984375 C-3.57959076 45.14869529 -3.96809992 50.08819375 -3.78076172 55.50830078 C-3.8125 57.4375 -3.8125 57.4375 -4.8125 58.4375 C-7.29819376 58.7016233 -9.75733615 58.90598925 -12.25 59.0625 C-12.94416016 59.1140625 -13.63832031 59.165625 -14.35351562 59.21875 C-19.56401037 59.56174481 -19.56401037 59.56174481 -21.8125 58.4375 C-21.8125 57.4475 -21.8125 56.4575 -21.8125 55.4375 C-19.93498047 54.99470703 -19.93498047 54.99470703 -18.01953125 54.54296875 C-15.3542589 53.53475711 -14.11754624 52.94624864 -12.63818359 50.47900391 C-11.75824021 47.92151999 -11.09791189 45.38779181 -10.5 42.75 C-10.26200684 41.81333496 -10.02401367 40.87666992 -9.77880859 39.91162109 C-9.07934613 37.09507414 -8.43534779 34.27188683 -7.8125 31.4375 C-7.54348877 30.2302124 -7.54348877 30.2302124 -7.26904297 28.99853516 C-5.77962883 22.15196312 -4.46535657 15.48451171 -4.8125 8.4375 C-6.35512813 6.33391619 -7.49358317 5.59695841 -9.8125 4.4375 C-9.8125 3.4475 -9.8125 2.4575 -9.8125 1.4375 C-6.69526574 -0.12111713 -3.42019345 0.088322 0 0 Z " fill="#FCFCFC" transform="translate(651.8125,95.5625)"/>
<path d="M0 0 C3.06398451 -0.13530844 6.12197126 -0.2342407 9.1875 -0.3125 C10.05181641 -0.35439453 10.91613281 -0.39628906 11.80664062 -0.43945312 C12.64775391 -0.45556641 13.48886719 -0.47167969 14.35546875 -0.48828125 C15.12528076 -0.51446533 15.89509277 -0.54064941 16.68823242 -0.56762695 C20.21549062 0.29844922 21.68302206 2.26463991 24 5 C25.78930664 7.98266602 25.78930664 7.98266602 27.41015625 11.25390625 C27.70433945 11.83663803 27.99852264 12.41936981 28.30162048 13.01976013 C29.23130414 14.86281288 30.14814706 16.71179937 31.0625 18.5625 C31.98111126 20.41638065 32.90267812 22.26846655 33.83409119 24.11595154 C34.67730528 25.78892781 35.50903099 27.46767997 36.34008789 29.14672852 C37.95690166 31.92591701 39.62211365 33.85754154 42 36 C42.18175781 34.78376953 42.18175781 34.78376953 42.3671875 33.54296875 C43.18967948 28.10819479 44.04396118 22.70225068 45.125 17.3125 C45.99389307 12.78894981 46.07843241 8.58585988 45.77734375 3.99609375 C45.85082031 3.33738281 45.92429687 2.67867188 46 2 C49.77635253 -0.51756835 52.56365558 -0.63772451 57 0 C59 1.5 59 1.5 60 3 C58.83633911 3.71917603 58.83633911 3.71917603 57.64916992 4.45288086 C54.05634518 7.90730354 53.57337154 10.97745337 52.61328125 15.75390625 C52.42533493 16.60999985 52.23738861 17.46609344 52.04374695 18.34812927 C51.44821535 21.0826516 50.8802543 23.82209102 50.3125 26.5625 C49.92037795 28.3786357 49.52651468 30.19439639 49.13085938 32.00976562 C47.39165578 40.05104834 45.71362529 48.09373323 44.38354492 56.21459961 C44 58 44 58 43 59 C40.32941149 59.14115161 37.67567762 59.04247107 35 59 C30.76920804 51.41827104 26.61105368 43.79797681 22.4609375 36.171875 C19.33471034 30.43244258 16.18474701 24.70717938 13 19 C12.88970459 19.65484375 12.77940918 20.3096875 12.66577148 20.984375 C11.42935137 28.07610513 9.86136953 35.03107977 8.0625 42 C7.81048828 43.02222656 7.55847656 44.04445312 7.29882812 45.09765625 C6.92081055 46.56525391 6.92081055 46.56525391 6.53515625 48.0625 C6.20076538 49.37927734 6.20076538 49.37927734 5.85961914 50.72265625 C4.92841824 53.18963778 4.10876856 54.42800293 2 56 C-0.6875 55.6875 -0.6875 55.6875 -3 55 C-2.375 52.5 -2.375 52.5 -1.75 50 C-1.47800781 48.90816406 -1.20601562 47.81632812 -0.92578125 46.69140625 C-0.28455072 44.13460097 0.36317954 41.5802358 1.01953125 39.02734375 C3.75783688 28.33179886 6.36420077 18.10812344 6 7 C2.535 5.02 2.535 5.02 -1 3 C-0.67 2.01 -0.34 1.02 0 0 Z " fill="#FCFCFC" transform="translate(518,96)"/>
<path d="M0 0 C0.83824814 -0.00095673 1.67649628 -0.00191345 2.54014587 -0.00289917 C4.31297887 -0.0035801 6.08581436 -0.00173184 7.85864258 0.00244141 C10.58225052 0.00779757 13.30569404 0.00249007 16.02929688 -0.00390625 C17.74869828 -0.00324558 19.46809959 -0.00196466 21.1875 0 C22.41715233 -0.00303635 22.41715233 -0.00303635 23.67164612 -0.00613403 C29.41238868 0.01785743 29.41238868 0.01785743 30.52734375 1.1328125 C30.81310905 6.65760827 30.27245972 10.89746459 28.52734375 16.1328125 C27.20734375 16.1328125 25.88734375 16.1328125 24.52734375 16.1328125 C24.40617187 15.49472656 24.285 14.85664062 24.16015625 14.19921875 C23.99257812 13.37292969 23.825 12.54664062 23.65234375 11.6953125 C23.48992187 10.87160156 23.3275 10.04789063 23.16015625 9.19921875 C22.95132812 8.51730469 22.7425 7.83539063 22.52734375 7.1328125 C20.00258913 5.87043519 18.21533909 6.03424846 15.40234375 6.0703125 C13.79359375 6.0909375 12.18484375 6.1115625 10.52734375 6.1328125 C9.20734375 12.4028125 7.88734375 18.6728125 6.52734375 25.1328125 C15.22029198 25.2168021 15.22029198 25.2168021 18.08984375 21.0703125 C18.56421875 20.1009375 19.03859375 19.1315625 19.52734375 18.1328125 C20.84734375 18.7928125 22.16734375 19.4528125 23.52734375 20.1328125 C23.07753302 22.73871601 22.61790153 25.34221781 22.15234375 27.9453125 C21.96285156 29.05229492 21.96285156 29.05229492 21.76953125 30.18164062 C21.12570893 33.73875896 20.55738319 36.08775334 18.52734375 39.1328125 C17.53734375 39.1328125 16.54734375 39.1328125 15.52734375 39.1328125 C14.86734375 36.8228125 14.20734375 34.5128125 13.52734375 32.1328125 C10.55734375 31.8028125 7.58734375 31.4728125 4.52734375 31.1328125 C4.02199648 33.86108615 3.5229053 36.59025944 3.02734375 39.3203125 C2.88425781 40.08923828 2.74117187 40.85816406 2.59375 41.65039062 C1.8949566 45.52703023 1.33695358 49.1742835 1.52734375 53.1328125 C4.63687754 54.6875794 7.09001136 54.41925687 10.52734375 54.1328125 C16.13951016 51.43897262 18.63170846 47.41158125 21.52734375 42.1328125 C23.17734375 42.4628125 24.82734375 42.7928125 26.52734375 43.1328125 C24.53591518 53.67566964 24.53591518 53.67566964 21.52734375 58.1328125 C18.3465233 59.57863998 15.52188662 59.04073394 12.15234375 58.6328125 C7.74274421 58.10864019 3.63904596 58.26755329 -0.78515625 58.6328125 C-7.79628866 59.19684454 -14.49040611 58.89815189 -21.47265625 58.1328125 C-21.47265625 57.1428125 -21.47265625 56.1528125 -21.47265625 55.1328125 C-20.05883667 54.63865845 -20.05883667 54.63865845 -18.61645508 54.13452148 C-15.15810248 52.36713698 -15.15810248 52.36713698 -14.07299805 48.55102539 C-13.74651567 47.07470565 -13.44766775 45.59209214 -13.171875 44.10546875 C-13.005168 43.32014267 -12.838461 42.53481659 -12.66670227 41.72569275 C-12.14036749 39.21985886 -11.6498094 36.70854449 -11.16015625 34.1953125 C-10.8129109 32.50797531 -10.4633265 30.82111768 -10.11132812 29.13476562 C-9.46801417 26.04057278 -8.83914799 22.94416894 -8.2253418 19.84399414 C-7.83747933 17.93160446 -7.44149407 16.01820274 -6.92951965 14.13523865 C-6.24554488 11.13738641 -6.41379455 8.19362072 -6.47265625 5.1328125 C-7.79265625 4.8028125 -9.11265625 4.4728125 -10.47265625 4.1328125 C-10.47265625 3.1428125 -10.47265625 2.1528125 -10.47265625 1.1328125 C-7.20298362 -0.50202382 -3.5923251 -0.00889239 0 0 Z " fill="#FCFCFC" transform="translate(1244.47265625,95.8671875)"/>
<path d="M0 0 C-0.14063135 2.29199177 -0.28765943 4.58359186 -0.4375 6.875 C-0.51871094 8.15117188 -0.59992187 9.42734375 -0.68359375 10.7421875 C-1 14 -1 14 -2 16 C-3.32 16 -4.64 16 -6 16 C-6.34933594 15.14535156 -6.69867187 14.29070312 -7.05859375 13.41015625 C-7.51363281 12.30542969 -7.96867188 11.20070313 -8.4375 10.0625 C-9.11619141 8.40927734 -9.11619141 8.40927734 -9.80859375 6.72265625 C-10.74424608 4.13431084 -10.74424608 4.13431084 -12 3 C-16.87163689 2.34671536 -21.54707779 2.20087217 -25.8125 4.875 C-31.71950586 9.77892939 -34.30689982 17.75562889 -36 25 C-36.29169477 28.19299739 -36.32508727 31.35777991 -36.3125 34.5625 C-36.32861328 35.38685547 -36.34472656 36.21121094 -36.36132812 37.06054688 C-36.36536377 42.10913596 -35.85632823 45.65864866 -33 50 C-29.88090543 52.07939638 -27.92154878 52.59805909 -24.19140625 52.515625 C-18.13426036 51.0904142 -13.4952054 44.80590742 -10 40 C-8.68 40.33 -7.36 40.66 -6 41 C-6.28427417 42.58467728 -6.57774818 44.1677057 -6.875 45.75 C-7.03742187 46.63171875 -7.19984375 47.5134375 -7.3671875 48.421875 C-7.99748404 50.9897498 -8.46719968 52.84272548 -10 55 C-18.94625941 58.90488196 -30.06901108 59.6464221 -39.3125 56.5 C-45.37623432 53.74642016 -49.60829528 49.3372986 -52.16796875 43.19921875 C-54.48515048 34.28949181 -53.93527547 24.34755402 -50 16 C-49.443125 14.80375 -48.88625 13.6075 -48.3125 12.375 C-43.37631186 4.28565746 -34.93256198 -0.72027053 -26 -3.25 C-17.78956689 -5.03556992 -7.12070901 -4.74713934 0 0 Z " fill="#FCFCFC" transform="translate(753,98)"/>
<path d="M0 0 C0.85807251 -0.00570007 1.71614502 -0.01140015 2.60021973 -0.01727295 C4.41592168 -0.026725 6.23164081 -0.03325775 8.04736328 -0.03710938 C10.83265806 -0.04683626 13.61722159 -0.07786575 16.40234375 -0.109375 C18.1640581 -0.11590283 19.92577775 -0.12115417 21.6875 -0.125 C22.52398071 -0.1373468 23.36046143 -0.1496936 24.22229004 -0.16241455 C26.56835938 -0.15332031 26.56835938 -0.15332031 30.34375 0.203125 C32.34375 3.203125 32.34375 3.203125 31.8828125 6.12109375 C31.58117188 7.20003906 31.27953125 8.27898437 30.96875 9.390625 C30.67226562 10.47730469 30.37578125 11.56398438 30.0703125 12.68359375 C29.83054687 13.51503906 29.59078125 14.34648438 29.34375 15.203125 C28.02375 15.203125 26.70375 15.203125 25.34375 15.203125 C25.22257813 14.63722656 25.10140625 14.07132813 24.9765625 13.48828125 C24.72519531 12.38806641 24.72519531 12.38806641 24.46875 11.265625 C24.30632813 10.53472656 24.14390625 9.80382812 23.9765625 9.05078125 C23.51413477 6.99612206 23.51413477 6.99612206 21.34375 6.203125 C19.47318209 5.9756235 17.59689042 5.79349689 15.71875 5.640625 C14.21441406 5.51494141 14.21441406 5.51494141 12.6796875 5.38671875 C11.90882813 5.32613281 11.13796875 5.26554687 10.34375 5.203125 C9.84060437 7.97342086 9.34111162 10.7442902 8.84375 13.515625 C8.62912109 14.69415039 8.62912109 14.69415039 8.41015625 15.89648438 C8.27480469 16.65380859 8.13945313 17.41113281 8 18.19140625 C7.81147461 19.23615112 7.81147461 19.23615112 7.61914062 20.30200195 C7.27206974 22.37779933 7.27206974 22.37779933 7.34375 25.203125 C10.44523341 25.1898708 13.3440355 25.02404515 16.34375 24.203125 C18.96349426 21.32038421 18.96349426 21.32038421 20.34375 18.203125 C21.66375 18.533125 22.98375 18.863125 24.34375 19.203125 C23.89415347 21.97563694 23.43448921 24.74582019 22.96875 27.515625 C22.77925781 28.69415039 22.77925781 28.69415039 22.5859375 29.89648438 C22.45703125 30.65380859 22.328125 31.41113281 22.1953125 32.19140625 C22.08010254 32.88790283 21.96489258 33.58439941 21.84619141 34.30200195 C21.34375 36.203125 21.34375 36.203125 19.34375 39.203125 C18.35375 38.873125 17.36375 38.543125 16.34375 38.203125 C15.15625 35.140625 15.15625 35.140625 14.34375 32.203125 C11.37375 32.203125 8.40375 32.203125 5.34375 32.203125 C3.54264833 39.53213618 1.9815402 46.67720067 1.34375 54.203125 C2.66375 54.863125 3.98375 55.523125 5.34375 56.203125 C2.81320663 58.73366837 1.90826118 58.45995729 -1.59375 58.46875 C-2.57085938 58.47132813 -3.54796875 58.47390625 -4.5546875 58.4765625 C-5.57820312 58.46882813 -6.60171875 58.46109375 -7.65625 58.453125 C-8.67976562 58.46085937 -9.70328125 58.46859375 -10.7578125 58.4765625 C-11.73492188 58.47398437 -12.71203125 58.47140625 -13.71875 58.46875 C-14.61722656 58.46649414 -15.51570312 58.46423828 -16.44140625 58.46191406 C-18.65625 58.203125 -18.65625 58.203125 -20.65625 56.203125 C-19.480625 55.42001953 -19.480625 55.42001953 -18.28125 54.62109375 C-15.04600935 51.64101345 -14.59958461 49.78330706 -13.65625 45.515625 C-13.50309326 44.84225098 -13.34993652 44.16887695 -13.19213867 43.47509766 C-12.65342749 41.05610033 -12.15254382 38.63118132 -11.65625 36.203125 C-11.44436035 35.18105957 -11.2324707 34.15899414 -11.01416016 33.10595703 C-8.11478157 19.19569764 -8.11478157 19.19569764 -5.65625 5.203125 C-7.30625 4.873125 -8.95625 4.543125 -10.65625 4.203125 C-10.65625 3.213125 -10.65625 2.223125 -10.65625 1.203125 C-7.34321697 -0.45339151 -3.64320735 0.01850991 0 0 Z " fill="#FCFCFC" transform="translate(994.65625,95.796875)"/>
<path d="M0 0 C5.07332195 5.07332195 4.31885133 16.38062809 5.18359375 23.37890625 C5.28588287 24.20458099 5.388172 25.03025574 5.49356079 25.88095093 C6.343612 32.76397112 6.343612 32.76397112 6.74731445 36.19750977 C7.04769044 38.73873331 7.36419985 41.27751252 7.68359375 43.81640625 C7.77120468 44.59448135 7.85881561 45.37255646 7.94908142 46.17420959 C8.48111448 50.31248645 8.48111448 50.31248645 10.39477539 53.94897461 C12.13756578 55.18758151 12.13756578 55.18758151 15 56 C14.34 57.32 13.68 58.64 13 60 C-2.23253485 60.26516985 -2.23253485 60.26516985 -9 59 C-9.66 58.34 -10.32 57.68 -11 57 C-10.51917969 56.62230469 -10.03835938 56.24460938 -9.54296875 55.85546875 C-7.46337042 53.35468595 -7.50158423 51.52693196 -7.3125 48.3125 C-7.209375 46.559375 -7.10625 44.80625 -7 43 C-15.415 43.495 -15.415 43.495 -24 44 C-27.36314075 50.16091342 -27.36314075 50.16091342 -28 57 C-31.20380017 59.13586678 -32.01939967 59.23132175 -35.6875 59.125 C-36.49574219 59.10695312 -37.30398438 59.08890625 -38.13671875 59.0703125 C-38.75160156 59.04710937 -39.36648438 59.02390625 -40 59 C-40 55 -40 55 -38.23828125 53.12890625 C-37.49964844 52.42636719 -36.76101563 51.72382813 -36 51 C-34.66730008 49.01942038 -33.40509919 46.99084774 -32.1875 44.9375 C-31.81786133 44.31480225 -31.44822266 43.69210449 -31.06738281 43.05053711 C-26.32333087 34.97489261 -21.82507379 26.75389207 -17.31713867 18.54467773 C-6.82193386 -0.51164504 -6.82193386 -0.51164504 0 0 Z M-12 20 C-13.79947717 22.49686778 -13.79947717 22.49686778 -15.5625 25.625 C-16.18253906 26.66914062 -16.80257812 27.71328125 -17.44140625 28.7890625 C-18.97682959 31.95226547 -19.61906089 34.52458295 -20 38 C-16.37 37.67 -12.74 37.34 -9 37 C-8.92031644 31.18310013 -9.00359279 25.72934145 -10 20 C-10.66 20 -11.32 20 -12 20 Z " fill="#FCFCFC" transform="translate(828,95)"/>
<path d="M0 0 C1.14650024 -0.02102783 1.14650024 -0.02102783 2.31616211 -0.04248047 C3.06003174 -0.03619629 3.80390137 -0.02991211 4.5703125 -0.0234375 C5.23047363 -0.02005371 5.89063477 -0.01666992 6.57080078 -0.01318359 C8.875 0.375 8.875 0.375 15.875 3.375 C15.215 8.655 14.555 13.935 13.875 19.375 C12.555 19.375 11.235 19.375 9.875 19.375 C9.47667969 18.21871094 9.47667969 18.21871094 9.0703125 17.0390625 C8.71710938 16.03617188 8.36390625 15.03328125 8 14 C7.65195313 13.00226563 7.30390625 12.00453125 6.9453125 10.9765625 C6.02717498 8.27057882 6.02717498 8.27057882 3.875 6.375 C-0.99414905 5.62185824 -5.05437274 5.8595128 -9.5 8 C-17.20692337 14.97293067 -19.71885113 24.64230141 -20.328125 34.7421875 C-20.42102018 41.69384366 -20.25581374 47.11337252 -17.125 53.375 C-15.15716824 55.76412397 -15.15716824 55.76412397 -11.4375 55.75 C-5.77471916 55.56601073 -1.99590261 53.29726073 1.8671875 49.328125 C3.58758983 47.37971755 5.25325026 45.40588417 6.875 43.375 C7.865 43.705 8.855 44.035 9.875 44.375 C9.59072583 45.95967728 9.29725182 47.5427057 9 49.125 C8.83757812 50.00671875 8.67515625 50.8884375 8.5078125 51.796875 C7.87696093 54.36701101 7.41238401 56.21793197 5.875 58.375 C-3.16605908 62.26425174 -13.52775143 62.74421 -22.875 59.875 C-29.21559846 57.32606128 -33.2409715 53.13036994 -36.28515625 47.0625 C-39.29812227 37.42100875 -37.35096264 26.31403001 -33.125 17.375 C-28.59686518 9.24087332 -20.90076082 3.49615543 -11.98046875 0.84375 C-7.9834727 0.18760838 -4.04592589 0.05151962 0 0 Z " fill="#FCFCFC" transform="translate(1210.125,94.625)"/>
<path d="M0 0 C2.22504332 4.6709198 2.76994553 9.35846667 3.4375 14.4296875 C3.56310303 15.33824493 3.68870605 16.24680237 3.81811523 17.18289185 C4.21813611 20.07946937 4.60988516 22.97707287 5 25.875 C5.39057182 28.76571366 5.78311067 31.65609061 6.18188477 34.54568481 C6.42946226 36.34032385 6.67239034 38.13561253 6.90991211 39.93161011 C7.57720151 44.77650291 8.3832155 49.3744522 10 54 C11.98567734 55.49743888 11.98567734 55.49743888 14 56 C13.67 57.32 13.34 58.64 13 60 C5.58982977 60.11459026 -1.64206267 59.91160286 -9 59 C-9 55 -9 55 -8 54 C-7.92773498 52.14712498 -7.9161878 50.29166122 -7.9375 48.4375 C-7.958125 46.643125 -7.97875 44.84875 -8 43 C-16.415 43.495 -16.415 43.495 -25 44 C-28.06994691 49.47613138 -28.06994691 49.47613138 -28 55 C-26.60414215 56.81476003 -26.60414215 56.81476003 -25 58 C-25.495 58.495 -25.495 58.495 -26 59 C-30.57071175 58.65504062 -33.58325171 58.14340842 -37 55 C-35.65955176 50.52290286 -33.87033724 46.77180172 -31.5 42.75 C-30.77738227 41.51375856 -30.05609271 40.27674007 -29.3359375 39.0390625 C-28.9553418 38.38583008 -28.57474609 37.73259766 -28.18261719 37.05957031 C-26.53775046 34.19497583 -24.9563799 31.29703526 -23.37109375 28.39916992 C-19.57717664 21.47512253 -15.66095062 14.64826899 -11.5 7.9375 C-11.0786377 7.25252441 -10.65727539 6.56754883 -10.22314453 5.86181641 C-7.07645124 0.8536626 -5.85787809 -0.15415469 0 0 Z M-12 19 C-13.50332378 21.81073569 -15.00209735 24.62387206 -16.5 27.4375 C-16.92925781 28.23994141 -17.35851562 29.04238281 -17.80078125 29.86914062 C-18.20683594 30.63291016 -18.61289062 31.39667969 -19.03125 32.18359375 C-19.40830078 32.89056396 -19.78535156 33.59753418 -20.17382812 34.32592773 C-21.07375864 35.83831776 -21.07375864 35.83831776 -21 37 C-17.04 37.33 -13.08 37.66 -9 38 C-8.76465904 28.94091296 -8.76465904 28.94091296 -10 20 C-10.66 19.67 -11.32 19.34 -12 19 Z " fill="#FCFCFC" transform="translate(614,95)"/>
<path d="M0 0 C0.85916016 -0.01224609 1.71832031 -0.02449219 2.60351562 -0.03710938 C3.8497168 -0.04000977 3.8497168 -0.04000977 5.12109375 -0.04296875 C5.87704834 -0.04707764 6.63300293 -0.05118652 7.41186523 -0.05541992 C9.83354102 0.2181148 11.46025389 0.98455633 13.5625 2.1875 C13.2325 2.8475 12.9025 3.5075 12.5625 4.1875 C10 4.8125 10 4.8125 7.5625 5.1875 C8.1100642 9.40553274 8.66151225 13.62303399 9.21655273 17.84008789 C9.4047944 19.27451856 9.59197721 20.7090886 9.77807617 22.14379883 C10.04587482 24.20691959 10.31748713 26.26950788 10.58984375 28.33203125 C10.83335571 30.19371948 10.83335571 30.19371948 11.08178711 32.09301758 C11.47835401 35.21315061 11.47835401 35.21315061 12.5625 38.1875 C14.71217374 34.29864873 16.84790075 30.4025595 18.97119141 26.49926758 C19.69496871 25.17331404 20.42247445 23.84938846 21.15380859 22.52758789 C22.20623908 20.6239058 23.24491056 18.71326011 24.28125 16.80078125 C24.90966797 15.65391846 25.53808594 14.50705566 26.18554688 13.32543945 C27.5273484 10.26760701 27.88501076 8.46904695 27.5625 5.1875 C26.2425 4.5275 24.9225 3.8675 23.5625 3.1875 C25.16808484 1.26213062 26.04019478 0.27675833 28.55541992 -0.15307617 C29.66300659 -0.1295105 29.66300659 -0.1295105 30.79296875 -0.10546875 C31.59541016 -0.09580078 32.39785156 -0.08613281 33.22460938 -0.07617188 C34.05798828 -0.05103516 34.89136719 -0.02589844 35.75 0 C37.0174707 0.02030273 37.0174707 0.02030273 38.31054688 0.04101562 C40.39480384 0.07634201 42.47873277 0.13014861 44.5625 0.1875 C44.5625 1.5075 44.5625 2.8275 44.5625 4.1875 C43.20125 4.7753125 43.20125 4.7753125 41.8125 5.375 C36.66970338 8.24309811 34.15907093 12.6427284 31.27734375 17.66015625 C30.66906738 18.715979 30.06079102 19.77180176 29.43408203 20.85961914 C28.79583496 21.97844482 28.15758789 23.09727051 27.5 24.25 C26.83465088 25.40952611 26.16912181 26.56894899 25.50341797 27.72827148 C20.8397071 35.86814678 16.27365062 44.06063977 11.80053711 52.30688477 C11.38425049 53.07315186 10.96796387 53.83941895 10.5390625 54.62890625 C10.17893066 55.29607666 9.81879883 55.96324707 9.44775391 56.65063477 C8.5625 58.1875 8.5625 58.1875 7.5625 59.1875 C5.1875 59.5625 5.1875 59.5625 2.5625 59.1875 C0.03870535 55.73712106 -0.97763419 52.63620893 -1.71875 48.4609375 C-1.91952148 47.35500244 -2.12029297 46.24906738 -2.32714844 45.10961914 C-2.52856445 43.93906982 -2.72998047 42.76852051 -2.9375 41.5625 C-3.15180664 40.36294678 -3.36611328 39.16339355 -3.58691406 37.92749023 C-5.00023578 29.9426489 -6.33115947 21.94418615 -7.53710938 13.92529297 C-7.82538619 12.01087284 -8.13033485 10.09898045 -8.4375 8.1875 C-8.56640625 7.38183594 -8.6953125 6.57617188 -8.828125 5.74609375 C-9.02921875 5.23175781 -9.2303125 4.71742187 -9.4375 4.1875 C-10.4275 3.8575 -11.4175 3.5275 -12.4375 3.1875 C-12.4375 2.5275 -12.4375 1.8675 -12.4375 1.1875 C-8.27634532 -0.19955156 -4.35784238 0.00325455 0 0 Z " fill="#FCFCFC" transform="translate(1101.4375,95.8125)"/>
<path d="M0 0 C-0.11470137 1.75070517 -0.24219028 3.50057536 -0.375 5.25 C-0.44460938 6.22453125 -0.51421875 7.1990625 -0.5859375 8.203125 C-0.98465249 10.89633189 -1.63507063 12.66963279 -3 15 C-3.99 15 -4.98 15 -6 15 C-6.15855469 14.38511719 -6.31710937 13.77023438 -6.48046875 13.13671875 C-7.95253665 7.93251636 -7.95253665 7.93251636 -11.375 3.875 C-14.45441161 2.84852946 -15.97234268 2.85439993 -19 4 C-21.56205842 7.84308764 -21.67366765 9.4340304 -21 14 C-18.99888291 16.98646958 -16.51714652 19.44507267 -14 22 C-12.55160649 23.5524074 -11.11400435 25.11495498 -9.6875 26.6875 C-9.03136719 27.39261719 -8.37523437 28.09773438 -7.69921875 28.82421875 C-4.07372313 33.46652004 -3.55140827 37.83744847 -3.6875 43.5703125 C-4.33751714 48.62419577 -7.30587632 51.32130129 -10.8125 54.75 C-17.04552887 59.14978508 -23.58047421 59.72803428 -31 59 C-41.12641815 56.87358185 -41.12641815 56.87358185 -43 55 C-42.93561368 52.6850193 -42.79849567 50.37186799 -42.625 48.0625 C-42.48964844 46.16177734 -42.48964844 46.16177734 -42.3515625 44.22265625 C-42 41 -42 41 -41 39 C-39.68 39 -38.36 39 -37 39 C-36.82984375 39.75925781 -36.6596875 40.51851562 -36.484375 41.30078125 C-36.12085938 42.79158203 -36.12085938 42.79158203 -35.75 44.3125 C-35.51796875 45.29863281 -35.2859375 46.28476563 -35.046875 47.30078125 C-33.85375185 50.37708012 -32.79611111 51.3353891 -30 53 C-27.18547298 54.21962838 -25.93549643 53.98580921 -22.875 53.3125 C-20.02006389 52.24435689 -20.02006389 52.24435689 -18.5625 50.375 C-17.71327192 46.78937034 -17.9837942 43.50398678 -19 40 C-20.61807286 37.66297801 -22.60770128 35.9149471 -24.75 34.0625 C-30.62319132 28.58518603 -35.26727584 23.64058636 -36.5625 15.4375 C-35.70437077 10.19337695 -34.28388159 5.89543452 -30.09375 2.41796875 C-20.81624625 -3.5881764 -10.3527034 -3.1854472 0 0 Z " fill="#FCFCFC" transform="translate(1318,97)"/>
<path d="M0 0 C0.92876953 -0.00128906 1.85753906 -0.00257812 2.81445312 -0.00390625 C4.26561523 0.00189453 4.26561523 0.00189453 5.74609375 0.0078125 C7.20305664 0.00201172 7.20305664 0.00201172 8.68945312 -0.00390625 C9.61693359 -0.00261719 10.54441406 -0.00132813 11.5 0 C12.35021729 0.00112793 13.20043457 0.00225586 14.07641602 0.00341797 C16.18359375 0.1328125 16.18359375 0.1328125 18.18359375 1.1328125 C17.85359375 2.1228125 17.52359375 3.1128125 17.18359375 4.1328125 C16.22565918 4.50156494 15.26772461 4.87031738 14.28076172 5.25024414 C10.90570215 7.30172486 10.68052062 7.60922259 9.67626953 11.17358398 C9.30070383 12.86135693 8.95321022 14.55553819 8.62890625 16.25390625 C8.43763153 17.15021255 8.24635681 18.04651886 8.04928589 18.96998596 C7.4450061 21.83235161 6.87699966 24.70063209 6.30859375 27.5703125 C5.90459752 29.49852046 5.49837224 31.42626283 5.08984375 33.35351562 C4.35169108 36.88732212 3.61686807 40.42152745 2.91455078 43.96264648 C2.77276398 44.67307602 2.63097717 45.38350555 2.4848938 46.11546326 C2.08511643 48.45221148 2.08511643 48.45221148 2.18359375 52.1328125 C3.57689756 52.357441 4.97348584 52.561737 6.37109375 52.7578125 C7.14839844 52.87382812 7.92570313 52.98984375 8.7265625 53.109375 C11.7647418 53.13835604 13.50750863 52.57378141 16.18359375 51.1328125 C18.25885308 48.99647035 18.25885308 48.99647035 19.99609375 46.5078125 C20.60066406 45.69054687 21.20523438 44.87328125 21.828125 44.03125 C22.27542969 43.40476563 22.72273437 42.77828125 23.18359375 42.1328125 C24.50359375 42.4628125 25.82359375 42.7928125 27.18359375 43.1328125 C26.92535374 44.69744314 26.65136056 46.259477 26.37109375 47.8203125 C26.22027344 48.69042969 26.06945312 49.56054688 25.9140625 50.45703125 C25.07007928 53.54862755 24.20803475 55.63306796 22.18359375 58.1328125 C19.59375 58.83984375 19.59375 58.83984375 16.24609375 58.9453125 C14.2815625 59.01492187 14.2815625 59.01492187 12.27734375 59.0859375 C10.57948783 59.1071607 8.88154762 59.1219591 7.18359375 59.1328125 C6.04664063 59.14119141 4.9096875 59.14957031 3.73828125 59.15820312 C-4.4470068 59.20480673 -12.63121593 59.18850572 -20.81640625 59.1328125 C-21.14640625 57.8128125 -21.47640625 56.4928125 -21.81640625 55.1328125 C-19.50640625 54.4728125 -17.19640625 53.8128125 -14.81640625 53.1328125 C-12.36798961 42.54580422 -10.13706656 31.92539079 -8.06640625 21.2578125 C-7.73249878 19.5555249 -7.73249878 19.5555249 -7.3918457 17.81884766 C-7.18648193 16.74940918 -6.98111816 15.6799707 -6.76953125 14.578125 C-6.58551758 13.62437988 -6.40150391 12.67063477 -6.21191406 11.68798828 C-5.71442936 8.90492552 -5.71442936 8.90492552 -5.81640625 5.1328125 C-6.47640625 4.8028125 -7.13640625 4.4728125 -7.81640625 4.1328125 C-7.81640625 3.1428125 -7.81640625 2.1528125 -7.81640625 1.1328125 C-4.90766621 0.16323249 -3.02650834 0.00400976 0 0 Z " fill="#FCFCFC" transform="translate(865.81640625,95.8671875)"/>
<path d="M0 0 C0.76248047 0.00064453 1.52496094 0.00128906 2.31054688 0.00195312 C7.9054498 0.0464749 7.9054498 0.0464749 10.1875 1.1875 C9.8575 2.1775 9.5275 3.1675 9.1875 4.1875 C8.21598999 4.59500488 8.21598999 4.59500488 7.22485352 5.01074219 C4.92762504 6.04896236 4.92762504 6.04896236 4.23022461 8.76269531 C4.01889893 9.83616211 3.80757324 10.90962891 3.58984375 12.015625 C3.34556641 13.20929688 3.10128906 14.40296875 2.84960938 15.6328125 C2.49092773 17.51613281 2.49092773 17.51613281 2.125 19.4375 C1.63411458 21.88020833 1.14322917 24.32291667 0.65234375 26.765625 C0.41499512 27.98572266 0.17764648 29.20582031 -0.06689453 30.46289062 C-1.04471791 35.34752503 -2.14422909 40.20268914 -3.25952148 45.05761719 C-4.12125112 49.93504496 -4.61605375 52.98216937 -1.8125 57.1875 C-2.8125 58.1875 -2.8125 58.1875 -5.22094727 58.30102539 C-6.26307373 58.29578857 -7.3052002 58.29055176 -8.37890625 58.28515625 C-9.50361328 58.28193359 -10.62832031 58.27871094 -11.78710938 58.27539062 C-12.97111328 58.26701172 -14.15511719 58.25863281 -15.375 58.25 C-16.56287109 58.24548828 -17.75074219 58.24097656 -18.97460938 58.23632812 C-21.92062226 58.22449675 -24.86653681 58.20801287 -27.8125 58.1875 C-27.8125 57.1975 -27.8125 56.2075 -27.8125 55.1875 C-25.5025 54.5275 -23.1925 53.8675 -20.8125 53.1875 C-20.68198242 52.49938232 -20.55146484 51.81126465 -20.41699219 51.10229492 C-19.80075467 47.85949339 -19.1819192 44.6171953 -18.5625 41.375 C-18.33868652 40.2005835 -18.11487305 39.02616699 -17.88427734 37.81616211 C-16.82752765 32.3103539 -15.75089641 26.81331513 -14.5546875 21.3359375 C-14.36551758 20.4694458 -14.17634766 19.6029541 -13.98144531 18.71020508 C-13.62581073 17.1017088 -13.26345383 15.49468024 -12.89355469 13.8894043 C-11.91557766 9.52255044 -11.91557766 9.52255044 -12.8125 5.1875 C-14.31235609 3.52039654 -14.31235609 3.52039654 -15.8125 2.1875 C-10.39356903 0.37161982 -5.69437415 -0.09383617 0 0 Z " fill="#FCFCFC" transform="translate(778.8125,95.8125)"/>
<path d="M0 0 C3.9166043 -0.0580966 7.83309763 -0.09362893 11.75 -0.125 C12.86117188 -0.14175781 13.97234375 -0.15851563 15.1171875 -0.17578125 C16.72207031 -0.18544922 16.72207031 -0.18544922 18.359375 -0.1953125 C19.34389648 -0.20578613 20.32841797 -0.21625977 21.34277344 -0.22705078 C24.05973111 0.00510382 25.68112513 0.60963727 28 2 C27.67 2.66 27.34 3.32 27 4 C26.19433594 4.23976563 25.38867188 4.47953125 24.55859375 4.7265625 C21.74681959 5.7803833 21.74681959 5.7803833 20.84765625 8.7109375 C20.58855469 9.92007813 20.32945313 11.12921875 20.0625 12.375 C19.83880737 13.38699463 19.83880737 13.38699463 19.6105957 14.41943359 C19.26472884 15.99833892 18.92890756 17.57946259 18.60058594 19.16210938 C17.89914234 22.47657295 17.14121216 25.77623699 16.3828125 29.078125 C15.81622743 31.59341687 15.25112994 34.10904429 14.6875 36.625 C14.40849854 37.84622559 14.12949707 39.06745117 13.84204102 40.32568359 C13.58865967 41.48922363 13.33527832 42.65276367 13.07421875 43.8515625 C12.84307373 44.89135254 12.61192871 45.93114258 12.3737793 47.00244141 C11.96975485 50.24255382 12.31110656 52.82272736 13 56 C7.19213182 59.87191212 -0.27229319 59.62128447 -7 58.5 C-7.66 58.335 -8.32 58.17 -9 58 C-8.34 56.68 -7.68 55.36 -7 54 C-6.34 54 -5.68 54 -5 54 C-2.43797057 44.3959679 -0.24327028 34.73748648 1.75 25 C1.97260498 23.9385376 2.19520996 22.8770752 2.42456055 21.78344727 C3.5729368 16.07039932 4.25211363 10.82662616 4 5 C2.68 4.67 1.36 4.34 0 4 C0 2.68 0 1.36 0 0 Z " fill="#FCFCFC" transform="translate(1149,96)"/>
<path d="M0 0 C9.24 0 18.48 0 28 0 C28.495 1.485 28.495 1.485 29 3 C27.89914062 3.33257812 26.79828125 3.66515625 25.6640625 4.0078125 C22.31750166 5.46466963 22.06107857 5.86920248 20.3984375 9.4296875 C20.02470154 10.9035758 19.68601771 12.38661387 19.375 13.875 C19.18172119 14.68130859 18.98844238 15.48761719 18.78930664 16.31835938 C17.55335319 21.71052389 16.62132271 27.14425564 15.72265625 32.6015625 C15.6148584 33.25333466 15.50706055 33.90510681 15.39599609 34.57662964 C14.85913708 37.84297542 14.34910443 41.11018243 13.87451172 44.38623047 C13.59438232 46.19051514 13.59438232 46.19051514 13.30859375 48.03125 C13.15189209 49.10955078 12.99519043 50.18785156 12.83374023 51.29882812 C11.84126073 54.51428733 10.89112672 55.3668905 8 57 C4.57767028 58.14077657 1.91326783 58.09815117 -1.6875 58.0625 C-3.45673828 58.04896484 -3.45673828 58.04896484 -5.26171875 58.03515625 C-6.16535156 58.02355469 -7.06898438 58.01195312 -8 58 C-7.625 56.0625 -7.625 56.0625 -7 54 C-6.01 53.505 -6.01 53.505 -5 53 C-4.21646576 50.86809893 -4.21646576 50.86809893 -3.6328125 48.2421875 C-3.38869629 47.23406006 -3.14458008 46.22593262 -2.89306641 45.18725586 C-2.63960449 44.09421143 -2.38614258 43.00116699 -2.125 41.875 C-1.86251465 40.76455322 -1.6000293 39.65410645 -1.32958984 38.51000977 C1.23607867 27.41800494 3.21688369 16.24131582 5 5 C3.35 4.67 1.7 4.34 0 4 C0 2.68 0 1.36 0 0 Z " fill="#FCFCFC" transform="translate(481,96)"/>
<path d="M0 0 C1.32 0.33 2.64 0.66 4 1 C1.84078037 12.82976715 1.84078037 12.82976715 0 16 C-3.50115191 17.8154121 -7.25950251 16.6473938 -11 16 C-11.33 14.68 -11.66 13.36 -12 12 C-11.46890625 11.63648438 -10.9378125 11.27296875 -10.390625 10.8984375 C-5.84855246 7.66594062 -2.76940714 4.8464625 0 0 Z " fill="#FCFCFC" transform="translate(1018,138)"/>
<path d="M0 0 C0.66 0.66 1.32 1.32 2 2 C1.83032227 3.82128906 1.83032227 3.82128906 1.25390625 6.015625 C1.05297363 6.82064453 0.85204102 7.62566406 0.64501953 8.45507812 C0.32573486 9.71481445 0.32573486 9.71481445 0 11 C-0.3532532 12.61802292 -0.69837175 14.23784419 -1.03515625 15.859375 C-1.20466797 16.66503906 -1.37417969 17.47070312 -1.54882812 18.30078125 C-1.71833984 19.10902344 -1.88785156 19.91726562 -2.0625 20.75 C-2.23587891 21.57371094 -2.40925781 22.39742187 -2.58789062 23.24609375 C-2.75611328 24.04660156 -2.92433594 24.84710938 -3.09765625 25.671875 C-3.25766113 26.42533203 -3.41766602 27.17878906 -3.58251953 27.95507812 C-3.9253921 29.63455219 -4.21784821 31.32424268 -4.49609375 33.015625 C-4.66238281 33.67046875 -4.82867188 34.3253125 -5 35 C-5.99 35.495 -5.99 35.495 -7 36 C-6.47411821 27.91182253 -4.82777845 20.2431196 -2.9375 12.375 C-2.65583984 11.18003906 -2.37417969 9.98507813 -2.08398438 8.75390625 C-1.39501325 5.83453709 -0.7002464 2.91668127 0 0 Z " fill="#EFEEEF" transform="translate(26,104)"/>
<path d="M0 0 C1.32 0.33 2.64 0.66 4 1 C5.5197276 7.3552245 4.1663492 11.91708727 2 18 C1.67 18 1.34 18 1 18 C0.91840426 13.83861737 1.01751476 10.0527516 2 6 C1.34 6 0.68 6 0 6 C0 4.02 0 2.04 0 0 Z " fill="#ECE9EA" transform="translate(685,100)"/>
<path d="M0 0 C1 4 1 4 1 7 C-1 9.1875 -1 9.1875 -3 11 C-3.66 10.67 -4.32 10.34 -5 10 C-3.35 6.7 -1.7 3.4 0 0 Z " fill="#F4F4F4" transform="translate(228,131)"/>
<path d="" fill="#FFFFFF" transform="translate(0,0)"/>
<path d="" fill="#FFFFFF" transform="translate(0,0)"/>
<path d="" fill="#FFFFFF" transform="translate(0,0)"/>
<path d="" fill="#FFFFFF" transform="translate(0,0)"/>
<path d="" fill="#FFFFFF" transform="translate(0,0)"/>
<path d="" fill="#FFFFFF" transform="translate(0,0)"/>
<path d="" fill="#FFFFFF" transform="translate(0,0)"/>
<path d="" fill="#FFFFFF" transform="translate(0,0)"/>
<path d="" fill="#FFFFFF" transform="translate(0,0)"/>
<path d="" fill="#FFFFFF" transform="translate(0,0)"/>
<path d="" fill="#FFFFFF" transform="translate(0,0)"/>
<path d="" fill="#FFFFFF" transform="translate(0,0)"/>
<path d="" fill="#FFFFFF" transform="translate(0,0)"/>
<path d="" fill="#FFFFFF" transform="translate(0,0)"/>
<path d="" fill="#FFFFFF" transform="translate(0,0)"/>
<path d="" fill="#FFFFFF" transform="translate(0,0)"/>
<path d="" fill="#FFFFFF" transform="translate(0,0)"/>
<path d="" fill="#FFFFFF" transform="translate(0,0)"/>
<path d="" fill="#FFFFFF" transform="translate(0,0)"/>
<path d="" fill="#FFFFFF" transform="translate(0,0)"/>
<path d="" fill="#FFFFFF" transform="translate(0,0)"/>
<path d="" fill="#FFFFFF" transform="translate(0,0)"/>
<path d="" fill="#FFFFFF" transform="translate(0,0)"/>
<path d="" fill="#FFFFFF" transform="translate(0,0)"/>
<path d="" fill="#FFFFFF" transform="translate(0,0)"/>
<path d="" fill="#FFFFFF" transform="translate(0,0)"/>
<path d="" fill="#FFFFFF" transform="translate(0,0)"/>
<path d="" fill="#FFFFFF" transform="translate(0,0)"/>
<path d="" fill="#FFFFFF" transform="translate(0,0)"/>
<path d="" fill="#FFFFFF" transform="translate(0,0)"/>
<path d="" fill="#FFFFFF" transform="translate(0,0)"/>
<path d="" fill="#FFFFFF" transform="translate(0,0)"/>
<path d="" fill="#FFFFFF" transform="translate(0,0)"/>
<path d="" fill="#FFFFFF" transform="translate(0,0)"/>
<path d="" fill="#FFFFFF" transform="translate(0,0)"/>
<path d="" fill="#FFFFFF" transform="translate(0,0)"/>
<path d="" fill="#FFFFFF" transform="translate(0,0)"/>
<path d="" fill="#FFFFFF" transform="translate(0,0)"/>
<path d="" fill="#FFFFFF" transform="translate(0,0)"/>
<path d="" fill="#FFFFFF" transform="translate(0,0)"/>
<path d="" fill="#FFFFFF" transform="translate(0,0)"/>
<path d="" fill="#FFFFFF" transform="translate(0,0)"/>
<path d="" fill="#FFFFFF" transform="translate(0,0)"/>
<path d="" fill="#FFFFFF" transform="translate(0,0)"/>
<path d="" fill="#FFFFFF" transform="translate(0,0)"/>
<path d="" fill="#FFFFFF" transform="translate(0,0)"/>
<path d="" fill="#FFFFFF" transform="translate(0,0)"/>
<path d="" fill="#FFFFFF" transform="translate(0,0)"/>
<path d="" fill="#FFFFFF" transform="translate(0,0)"/>
<path d="" fill="#FFFFFF" transform="translate(0,0)"/>
<path d="" fill="#FFFFFF" transform="translate(0,0)"/>
<path d="" fill="#FFFFFF" transform="translate(0,0)"/>
<path d="" fill="#FFFFFF" transform="translate(0,0)"/>
<path d="" fill="#FFFFFF" transform="translate(0,0)"/>
<path d="" fill="#FFFFFF" transform="translate(0,0)"/>
<path d="" fill="#FFFFFF" transform="translate(0,0)"/>
<path d="" fill="#FFFFFF" transform="translate(0,0)"/>
<path d="" fill="#FFFFFF" transform="translate(0,0)"/>
<path d="" fill="#FFFFFF" transform="translate(0,0)"/>
<path d="" fill="#FFFFFF" transform="translate(0,0)"/>
<path d="" fill="#FFFFFF" transform="translate(0,0)"/>
<path d="" fill="#FFFFFF" transform="translate(0,0)"/>
<path d="" fill="#FFFFFF" transform="translate(0,0)"/>
<path d="" fill="#FFFFFF" transform="translate(0,0)"/>
<path d="" fill="#FFFFFF" transform="translate(0,0)"/>
<path d="" fill="#FFFFFF" transform="translate(0,0)"/>
<path d="" fill="#FFFFFF" transform="translate(0,0)"/>
<path d="" fill="#FFFFFF" transform="translate(0,0)"/>
<path d="" fill="#FFFFFF" transform="translate(0,0)"/>
<path d="" fill="#FFFFFF" transform="translate(0,0)"/>
<path d="" fill="#FFFFFF" transform="translate(0,0)"/>
<path d="" fill="#FFFFFF" transform="translate(0,0)"/>
<path d="" fill="#FFFFFF" transform="translate(0,0)"/>
<path d="" fill="#FFFFFF" transform="translate(0,0)"/>
<path d="" fill="#FFFFFF" transform="translate(0,0)"/>
<path d="" fill="#FFFFFF" transform="translate(0,0)"/>
<path d="" fill="#FFFFFF" transform="translate(0,0)"/>
<path d="" fill="#FFFFFF" transform="translate(0,0)"/>
<path d="" fill="#FFFFFF" transform="translate(0,0)"/>
<path d="" fill="#FFFFFF" transform="translate(0,0)"/>
<path d="" fill="#FFFFFF" transform="translate(0,0)"/>
<path d="" fill="#FFFFFF" transform="translate(0,0)"/>
</svg>
